<svg xmlns="http://www.w3.org/2000/svg" viewBox="0 0 134.07 48.87"><defs><style>.cls-1{fill:none;stroke:#fff;stroke-miterlimit:10;stroke-width:1.16px;}</style></defs><g id="Vrstva_2" data-name="Vrstva 2"><g id="Vrstva_1-2" data-name="Vrstva 1"><polygon class="cls-1" points="28.11 1.15 20.99 34.01 43.18 34.01 44.47 28.06 28.5 28.06 30.23 20.13 44.99 20.13 46.28 14.18 31.51 14.18 33.05 7.09 48.89 7.09 50.18 1.15 28.11 1.15"/><polygon class="cls-1" points="10.88 1.15 0.72 47.84 57.05 47.84 70.38 32.08 76.59 47.83 87.46 47.84 77.46 24.31 89.72 10.43 105.46 10.43 107.29 1.16 85.94 1.16 73.5 15.91 67.86 1.15 57.1 1.15 66.46 23.49 53.38 38.83 12.1 38.83 20.27 1.15 10.88 1.15"/><path class="cls-1" d="M124.64,26.1c.73-5.12-1.13-6-4.12-6.18-1.94-.1-6.89.76-6.62,4.92s17.38,1.3,15.19,13.32c-1.47,8.07-9.11,10.36-14.23,10.11C109.36,48,102.05,44.8,104.48,35h6c-1.48,4.7.34,6.92,4.63,7.28,5.84.5,7.42-2.79,7.48-4.93.17-6.05-18.14-1.64-14.84-13.57,2.12-7.69,8.19-9.67,13.4-9.84,7.73-.24,11.21,5.38,9.38,12.17Z"/><polygon class="cls-1" points="128.47 1.16 126.45 10.49 133.17 5.82 128.47 1.16"/><polygon class="cls-1" points="120.5 1.16 118.48 10.49 125.2 5.82 120.5 1.16"/><polygon class="cls-1" points="112.54 1.16 110.52 10.49 117.24 5.82 112.54 1.16"/><polygon class="cls-1" points="98.27 14.97 91.15 47.84 97.39 47.84 104.51 14.97 98.27 14.97"/></g></g></svg>